<svg width="22" height="23" viewBox="0 0 22 23" fill="none" xmlns="http://www.w3.org/2000/svg">
<path d="M19.5312 0.6875H2.34375C1.02539 0.6875 0 1.76172 0 3.03125V20.2188C0 21.5371 1.02539 22.5625 2.34375 22.5625H9.0332V15.1406H5.95703V11.625H9.0332V8.98828C9.0332 5.96094 10.8398 4.25195 13.5742 4.25195C14.9414 4.25195 16.3086 4.49609 16.3086 4.49609V7.47461H14.7949C13.2812 7.47461 12.793 8.40234 12.793 9.37891V11.625H16.1621L15.625 15.1406H12.793V22.5625H19.5312C20.8008 22.5625 21.875 21.5371 21.875 20.2188V3.03125C21.875 1.76172 20.8008 0.6875 19.5312 0.6875Z" fill="#065EAF"/>
</svg>
