<svg width="22" height="23" viewBox="0 0 22 23" fill="none" xmlns="http://www.w3.org/2000/svg">
<path d="M10.9375 9.03711C9.47266 9.03711 8.30078 10.209 8.30078 11.625C8.30078 13.0898 9.47266 14.2617 10.9375 14.2617C12.3535 14.2617 13.5254 13.0898 13.5254 11.625C13.5254 10.209 12.3535 9.03711 10.9375 9.03711ZM16.9922 7.03516C16.748 6.35156 16.2109 5.81445 15.5273 5.57031C14.502 5.13086 12.0605 5.22852 10.9375 5.22852C9.76562 5.22852 7.32422 5.13086 6.29883 5.57031C5.61523 5.81445 5.07812 6.35156 4.83398 7.03516C4.44336 8.06055 4.49219 10.502 4.49219 11.625C4.49219 12.7969 4.44336 15.2383 4.83398 16.2637C5.07812 16.9473 5.61523 17.4844 6.29883 17.7285C7.32422 18.168 9.76562 18.0703 10.9375 18.0703C12.0605 18.0703 14.502 18.168 15.5273 17.7285C16.2109 17.4844 16.748 16.9473 16.9922 16.2637C17.4316 15.2383 17.334 12.7969 17.334 11.625C17.334 10.502 17.4316 8.06055 16.9922 7.03516ZM10.9375 15.6289C8.69141 15.6289 6.93359 13.8711 6.93359 11.625C6.93359 9.42773 8.69141 7.62109 10.9375 7.62109C13.1348 7.62109 14.9414 9.42773 14.9414 11.625V11.6738C14.9414 13.8711 13.1348 15.6777 10.9375 15.6777V15.6289ZM15.0879 8.40234C14.5508 8.40234 14.1602 8.01172 14.1602 7.47461C14.1602 6.9375 14.5508 6.54688 15.0879 6.54688C15.5762 6.54688 16.0156 6.9375 16.0156 7.47461C16.0156 8.01172 15.5762 8.40234 15.0879 8.40234ZM19.5312 0.6875H2.34375C1.02539 0.6875 0 1.76172 0 3.03125V20.2188C0 21.5371 1.02539 22.5625 2.34375 22.5625H19.5312C20.8008 22.5625 21.875 21.5371 21.875 20.2188V3.03125C21.875 1.76172 20.8008 0.6875 19.5312 0.6875ZM18.6523 14.8477C18.6035 16.1172 18.3105 17.2402 17.4316 18.1191C16.5039 19.0469 15.3809 19.3398 14.1602 19.3887C12.8418 19.4863 8.98438 19.4863 7.71484 19.3887C6.44531 19.3398 5.32227 19.0469 4.44336 18.1191C3.51562 17.2402 3.22266 16.1172 3.17383 14.8477C3.07617 13.5781 3.07617 9.7207 3.17383 8.40234C3.22266 7.18164 3.51562 6.05859 4.44336 5.13086C5.32227 4.25195 6.44531 3.95898 7.71484 3.91016C8.98438 3.8125 12.8418 3.8125 14.1602 3.91016C15.3809 3.95898 16.5039 4.25195 17.4316 5.17969C18.3105 6.05859 18.6035 7.18164 18.6523 8.45117C18.75 9.7207 18.75 13.5781 18.6523 14.8477Z" fill="#EB5E80"/>
</svg>
