<svg width="22" height="23" viewBox="0 0 22 23" fill="none" xmlns="http://www.w3.org/2000/svg">
<path d="M20.3125 0.6875H1.51367C0.683594 0.6875 0 1.41992 0 2.29883V21C0 21.8789 0.683594 22.5625 1.51367 22.5625H20.3125C21.1426 22.5625 21.875 21.8789 21.875 21V2.29883C21.875 1.41992 21.1426 0.6875 20.3125 0.6875ZM6.5918 19.4375H3.36914V9.03711H6.5918V19.4375ZM4.98047 7.57227C3.90625 7.57227 3.07617 6.74219 3.07617 5.7168C3.07617 4.69141 3.90625 3.8125 4.98047 3.8125C6.00586 3.8125 6.83594 4.69141 6.83594 5.7168C6.83594 6.74219 6.00586 7.57227 4.98047 7.57227ZM18.75 19.4375H15.4785V14.3594C15.4785 13.1875 15.4785 11.625 13.8184 11.625C12.1094 11.625 11.8652 12.9434 11.8652 14.3105V19.4375H8.64258V9.03711H11.7188V10.4531H11.7676C12.207 9.62305 13.2812 8.74414 14.8438 8.74414C18.1152 8.74414 18.75 10.9414 18.75 13.7246V19.4375Z" fill="#196586"/>
</svg>
