<svg width="22" height="23" viewBox="0 0 22 23" fill="none" xmlns="http://www.w3.org/2000/svg">
<path d="M19.5312 0.6875H2.34375C1.02539 0.6875 0 1.76172 0 3.03125V20.2188C0 21.5371 1.02539 22.5625 2.34375 22.5625H19.5312C20.8008 22.5625 21.875 21.5371 21.875 20.2188V3.03125C21.875 1.76172 20.8008 0.6875 19.5312 0.6875ZM17.1387 8.45117C17.1387 8.59766 17.1387 8.74414 17.1387 8.89062C17.1387 13.0898 13.916 17.9727 8.00781 17.9727C6.20117 17.9727 4.54102 17.4844 3.125 16.5566C3.36914 16.6055 3.61328 16.6055 3.85742 16.6055C5.37109 16.6055 6.73828 16.0684 7.86133 15.2383C6.44531 15.1895 5.27344 14.2617 4.83398 12.9922C5.37109 13.0898 5.81055 13.0898 6.29883 12.9434C4.83398 12.6504 3.75977 11.3809 3.75977 9.81836V9.76953C4.15039 10.0137 4.63867 10.1602 5.17578 10.1602C4.29688 9.57422 3.75977 8.59766 3.75977 7.52344C3.75977 6.88867 3.90625 6.35156 4.19922 5.86328C5.76172 7.81641 8.1543 9.08594 10.791 9.23242C10.3516 7.08398 11.9629 5.27734 13.916 5.27734C14.8438 5.27734 15.6738 5.66797 16.2598 6.30273C16.9922 6.15625 17.6758 5.91211 18.3105 5.52148C18.0664 6.30273 17.5293 6.88867 16.8945 7.2793C17.5293 7.23047 18.1641 7.03516 18.75 6.79102C18.3105 7.42578 17.7246 8.01172 17.1387 8.45117Z" fill="#2386BD"/>
</svg>
