<svg width="22" height="23" viewBox="0 0 22 23" fill="none" xmlns="http://www.w3.org/2000/svg">
<path d="M9.08203 9.03711V14.3105L13.7695 11.6738L9.08203 9.03711ZM21.875 3.03125C21.875 1.76172 20.8008 0.6875 19.5312 0.6875H2.34375C1.02539 0.6875 0 1.76172 0 3.03125V20.2188C0 21.5371 1.02539 22.5625 2.34375 22.5625H19.5312C20.8008 22.5625 21.875 21.5371 21.875 20.2188V3.03125ZM19.8242 11.6738C19.8242 11.6738 19.8242 14.5547 19.4336 15.9707C19.2383 16.752 18.6035 17.3379 17.8711 17.5332C16.4551 17.875 10.9375 17.875 10.9375 17.875C10.9375 17.875 5.37109 17.875 3.95508 17.5332C3.22266 17.3379 2.58789 16.752 2.39258 15.9707C2.05078 14.5547 2.05078 11.6738 2.05078 11.6738C2.05078 11.6738 2.05078 8.74414 2.39258 7.37695C2.58789 6.5957 3.22266 5.96094 3.95508 5.76562C5.37109 5.375 10.9375 5.375 10.9375 5.375C10.9375 5.375 16.4551 5.375 17.8711 5.76562C18.6035 5.96094 19.2383 6.5957 19.4336 7.37695C19.8242 8.74414 19.8242 11.6738 19.8242 11.6738Z" fill="#D10A0A"/>
</svg>
